<svg width="22" height="24" viewBox="0 0 22 24" fill="none" xmlns="http://www.w3.org/2000/svg">
<path d="M8 19.5C3 21 3 17 1 16.5M15 22.5V18.63C15.0375 18.1532 14.9731 17.6738 14.811 17.2238C14.6489 16.7738 14.3929 16.3634 14.06 16.02C17.2 15.67 20.5 14.48 20.5 9.02C20.4997 7.62383 19.9627 6.2812 19 5.27C19.4559 4.04851 19.4236 2.69835 18.91 1.5C18.91 1.5 17.73 1.15 15 2.98C12.708 2.35882 10.292 2.35882 8 2.98C5.27 1.15 4.09 1.5 4.09 1.5C3.57638 2.69835 3.54414 4.04851 4 5.27C3.03013 6.2887 2.49252 7.64346 2.5 9.05C2.5 14.47 5.8 15.66 8.94 16.05C8.611 16.39 8.35726 16.7954 8.19531 17.2399C8.03335 17.6844 7.96681 18.1581 8 18.63V22.5" stroke="white" stroke-width="2" stroke-linecap="round" stroke-linejoin="round"/>
</svg>
